<svg width="241" height="72" viewBox="0 0 241 72" fill="none" xmlns="http://www.w3.org/2000/svg">
<path d="M85.1934 61.2458C84.4285 61.2458 83.5469 61.1289 82.5483 60.8952L79.3934 60.0348L80.2539 57.4535C82.0385 58.0909 83.5256 58.4096 84.7154 58.4096C85.3527 58.4096 85.8838 58.2608 86.3087 57.9634C86.7336 57.666 86.9461 57.2623 86.9461 56.7524C86.9461 56.2426 86.808 55.8601 86.5318 55.6052C86.2556 55.3503 85.7457 55.1272 85.0022 54.936L83.2813 54.4898C80.9018 53.8737 79.7121 52.4715 79.7121 50.2833C79.7121 48.9661 80.2114 47.8826 81.2099 47.0328C82.2297 46.183 83.5575 45.7581 85.1934 45.7581C85.852 45.7581 86.6274 45.8749 87.5197 46.1086L90.6746 46.969L89.8142 49.5503C88.0933 48.913 86.7868 48.5943 85.8945 48.5943C85.2996 48.5943 84.8003 48.7536 84.3967 49.0723C83.993 49.3697 83.7912 49.7628 83.7912 50.2514C83.7912 50.7613 83.9293 51.1437 84.2055 51.3987C84.4817 51.6536 84.9915 51.8767 85.7351 52.0679L87.4241 52.514C88.6988 52.8539 89.6124 53.3745 90.1647 54.0755C90.7171 54.7554 90.9933 55.6371 90.9933 56.7206C90.9933 58.0165 90.5047 59.1 89.5274 59.9711C88.5501 60.8209 87.1054 61.2458 85.1934 61.2458ZM98.8228 61.2458C97.2294 61.2458 96.1034 60.8528 95.4448 60.0667C94.8075 59.2806 94.4888 58.0803 94.4888 56.4656V48.8492H92.1306V46.0449H94.4888V42.3163L98.536 41.5196V46.0449H102.041V48.8492H98.536V56.5294C98.536 57.7828 99.0459 58.4096 100.066 58.4096C100.682 58.4096 101.34 58.2184 102.041 57.8359L102.679 60.226C101.51 60.9059 100.225 61.2458 98.8228 61.2458ZM108.746 61.2458C107.301 61.2458 106.154 60.7996 105.304 59.9073C104.454 59.0151 104.029 57.9528 104.029 56.7206C104.029 55.807 104.327 55.0741 104.922 54.5217C105.538 53.9481 106.494 53.5019 107.79 53.1832L112.92 51.9085V50.602C112.92 49.9858 112.729 49.4972 112.347 49.136C111.986 48.7749 111.476 48.5943 110.817 48.5943C110.073 48.5943 108.395 49.1573 105.782 50.2833L104.667 47.702L108.299 46.3635C109.404 45.9599 110.212 45.7581 110.721 45.7581C112.655 45.7581 114.174 46.2679 115.279 47.2877C116.405 48.2862 116.968 49.6034 116.968 51.2393V56.7206C116.968 57.1242 117.031 57.7297 117.159 58.537C117.307 59.3231 117.499 59.9923 117.732 60.5447L114.259 61.2458C113.834 60.7784 113.388 60.1304 112.92 59.3019C111.497 60.5978 110.105 61.2458 108.746 61.2458ZM110.18 58.4096C111.008 58.4096 111.922 57.9315 112.92 56.9755V53.7569L109.734 54.681C108.714 54.9785 108.204 55.5415 108.204 56.37C108.204 57.0074 108.384 57.5066 108.746 57.8678C109.107 58.229 109.585 58.4096 110.18 58.4096ZM125.385 61.2458C123.792 61.2458 122.666 60.8528 122.007 60.0667C121.37 59.2806 121.051 58.0803 121.051 56.4656V48.8492H118.693V46.0449H121.051V42.3163L125.098 41.5196V46.0449H128.604V48.8492H125.098V56.5294C125.098 57.7828 125.608 58.4096 126.628 58.4096C127.244 58.4096 127.903 58.2184 128.604 57.8359L129.241 60.226C128.073 60.9059 126.787 61.2458 125.385 61.2458ZM170.394 60.959H166.347V52.2591C166.347 50.9844 166.156 50.0602 165.773 49.4866C165.412 48.8917 164.828 48.5943 164.021 48.5943C163.213 48.5943 162.342 49.0723 161.407 50.0283V60.959H157.36V52.2591C157.36 50.9844 157.18 50.0602 156.818 49.4866C156.457 48.8917 155.862 48.5943 155.034 48.5943C154.248 48.5943 153.377 49.0723 152.421 50.0283V60.959H148.373V50.2833C148.373 49.8796 148.299 49.2848 148.15 48.4987C148.023 47.6914 147.842 47.0115 147.609 46.4591L151.05 45.7581C151.496 46.2042 151.953 46.8522 152.421 47.702C153.759 46.406 155.151 45.7581 156.595 45.7581C158.741 45.7581 160.196 46.5123 160.961 48.0207C161.429 47.4046 162.098 46.8734 162.969 46.4273C163.84 45.9811 164.711 45.7581 165.582 45.7581C167.197 45.7581 168.397 46.2255 169.183 47.1602C169.99 48.095 170.394 49.5503 170.394 51.5261V60.959ZM177.742 61.2458C176.297 61.2458 175.15 60.7996 174.3 59.9073C173.45 59.0151 173.025 57.9528 173.025 56.7206C173.025 55.807 173.323 55.0741 173.918 54.5217C174.534 53.9481 175.49 53.5019 176.786 53.1832L181.917 51.9085V50.602C181.917 49.9858 181.725 49.4972 181.343 49.136C180.982 48.7749 180.472 48.5943 179.813 48.5943C179.07 48.5943 177.391 49.1573 174.778 50.2833L173.663 47.702L177.296 46.3635C178.4 45.9599 179.208 45.7581 179.718 45.7581C181.651 45.7581 183.17 46.2679 184.275 47.2877C185.401 48.2862 185.964 49.6034 185.964 51.2393V56.7206C185.964 57.1242 186.027 57.7297 186.155 58.537C186.304 59.3231 186.495 59.9923 186.729 60.5447L183.255 61.2458C182.83 60.7784 182.384 60.1304 181.917 59.3019C180.493 60.5978 179.102 61.2458 177.742 61.2458ZM179.176 58.4096C180.004 58.4096 180.918 57.9315 181.917 56.9755V53.7569L178.73 54.681C177.71 54.9785 177.2 55.5415 177.2 56.37C177.2 57.0074 177.381 57.5066 177.742 57.8678C178.103 58.229 178.581 58.4096 179.176 58.4096ZM193.641 60.959H189.594V50.2833C189.594 49.8796 189.519 49.2848 189.371 48.4987C189.243 47.6914 189.063 47.0115 188.829 46.4591L192.271 45.7581C192.929 46.4167 193.386 47.309 193.641 48.435C194.066 47.5851 194.629 46.9265 195.33 46.4591C196.052 45.9918 196.828 45.7581 197.656 45.7581C198.124 45.7581 198.549 45.8324 198.931 45.9811L198.23 49.4547H197.178C196.18 49.4547 195.394 49.699 194.82 50.1877C194.268 50.6551 193.875 51.4411 193.641 52.5459V60.959ZM214.686 60.959H209.714L204.775 53.247V60.959H200.727V39.6713L204.775 38.8746V52.1316L209.81 46.0449H214.367L208.376 52.7052L214.686 60.959ZM221.94 61.2458C219.539 61.2458 217.723 60.5341 216.49 59.1107C215.279 57.666 214.674 55.7752 214.674 53.4382C214.674 51.1012 215.301 49.2423 216.554 47.8613C217.808 46.4591 219.55 45.7581 221.78 45.7581C226.093 45.7581 228.25 47.9994 228.25 52.4822C228.25 52.9496 228.196 53.3426 228.09 53.6613H218.849C218.849 55.2547 219.135 56.4444 219.709 57.2305C220.304 58.0165 221.122 58.4096 222.163 58.4096C223.331 58.4096 224.861 57.9847 226.752 57.1349L227.867 59.7161L224.489 60.959C223.915 61.1502 223.066 61.2458 221.94 61.2458ZM221.557 48.5943C220.707 48.5943 220.038 48.8917 219.55 49.4866C219.082 50.0815 218.849 50.825 218.849 51.7173H224.043C224.043 49.6353 223.214 48.5943 221.557 48.5943ZM236.185 61.2458C234.592 61.2458 233.466 60.8528 232.807 60.0667C232.17 59.2806 231.851 58.0803 231.851 56.4656V48.8492H229.493V46.0449H231.851V42.3163L235.899 41.5196V46.0449H239.404V48.8492H235.899V56.5294C235.899 57.7828 236.408 58.4096 237.428 58.4096C238.044 58.4096 238.703 58.2184 239.404 57.8359L240.041 60.226C238.873 60.9059 237.588 61.2458 236.185 61.2458Z" fill="#54618E"/>
<path d="M143.753 60.959H139.897V56.0513H131.197L130.337 53.5657L139.419 40.5636H143.753V53.0558H145.792V56.0513H143.753V60.959ZM139.897 53.0558V44.7702L134.256 53.0558H139.897Z" fill="#D653D2"/>
<mask id="mask0_1457_20129" style="mask-type:alpha" maskUnits="userSpaceOnUse" x="0" y="0" width="61" height="32">
<ellipse cx="30.208" cy="16.0983" rx="30.208" ry="15.3025" fill="url(#paint0_linear_1457_20129)"/>
</mask>
<g mask="url(#mask0_1457_20129)">
<ellipse cx="30.208" cy="16.0983" rx="30.208" ry="15.3025" fill="url(#paint1_linear_1457_20129)"/>
<path d="M39.8129 20.345V3.33628C39.8129 3.07614 39.828 2.79304 39.8582 2.48699C39.9186 2.18094 39.9791 1.86723 40.0395 1.54588L12.3085 20.345H39.8129ZM65.4824 20.345V21.5386C65.4824 21.707 65.3766 21.8447 65.1652 21.9518C64.9839 22.0436 64.6819 22.0895 64.2589 22.0895H43.6191V31.4088H39.8129V22.0895H9.4992C9.04608 22.0895 8.69869 22.0436 8.45702 21.9518C8.21536 21.8447 8.04921 21.707 7.95859 21.5386L7.55078 20.4598L39.7676 -1.11676H43.6191V20.345H65.4824Z" fill="white"/>
</g>
<defs>
<linearGradient id="paint0_linear_1457_20129" x1="69.4784" y1="-8.38575" x2="52.1749" y2="43.0986" gradientUnits="userSpaceOnUse">
<stop stop-color="#FF00AA"/>
<stop offset="1" stop-color="#8912DE"/>
</linearGradient>
<linearGradient id="paint1_linear_1457_20129" x1="69.4784" y1="-8.38575" x2="52.1749" y2="43.0986" gradientUnits="userSpaceOnUse">
<stop stop-color="#FF00AA"/>
<stop offset="1" stop-color="#8912DE"/>
</linearGradient>
</defs>
</svg>
